<svg xmlns="http://www.w3.org/2000/svg" width="1463" height="1521" viewBox="0 0 1463 1521">
  <defs>
    <style>
      .cls-1 {
        fill: #fff;
      }

      .cls-1, .cls-2, .cls-3 {
        fill-rule: evenodd;
      }

      .cls-2 {
        fill: #09f;
      }

      .cls-3 {
        fill: #333;
      }
    </style>
  </defs>
  <path id="Color_Fill_3" data-name="Color Fill 3" class="cls-1" d="M1113,294c27.56-.213,32.99,7.483,42,26,12.77,1.977,28.81,3.893,43,2v4q-4.005,55.494-8,111c-0.33-2-.67-4-1-6v28c-5.54,14.743-68.94,37.363-87,45-60.94,25.768-128.962,46.143-197,65L795,595l-40,421q1.5,49.995,3,100v47c0,55.86-2.608,108.04-15,153-8.319,30.18-20.477,59.56-37,82-7.766,10.55-23.566,17.99-29,30-30.1.27-63.483,1.98-82-10-29.368-19-59.2-145.5-48-203,13.088-67.2,35.407-122.08,54-183,17.465-57.226,22.363-117.483,35-181,9.646-48.481,24.353-127.822,0-172-15.806-28.673-54.687-29.2-83-12l-43,34c-26.757,19.021-55.635,31.066-91,42-15.027,4.646-49.922,16.5-66,8L336,642c-2.01-5.593-8.744-29.168-5-39,17.1-44.911,137.676-96.129,187-117,124.511-52.686,258.9-95.421,394-139q71.993-20.5,144-41Z"/>
  <path id="Color_Fill_2" data-name="Color Fill 2" class="cls-2" d="M338,74c62.271-.066,128.19,3.932,174,20,30.147,10.574,69.213,4.492,94,17l60,8c38.452,15.336,96.2,13.726,137,26l42,5,115,23c24.155,8.412,52.95,1.307,74,12q23.505,4,47,8c41.57,15.882,147.05,54.443,114,131-11.46.28-32.78,0.316-40-5-7.31-7.134-5.3-16.479-16-21-23.02-9.73-52.98,1.231-73,7L923,344C781.4,388.264,635.236,430.224,508,491c-69.117,33.014-135.238,56.873-178,116l-1-2c-6.609-6.923-10.7-82.288-15-99L284,323q-5.5-43-11-86l-1,4c-0.106-65.794-22.109-106.628,23-146C307.757,83.866,326.034,84.029,338,74Z"/>
  <path id="Color_Fill_1" data-name="Color Fill 1" class="cls-3" d="M1187,460c3.92,0.884,4.41-.662,7,3,1.41,1.556-.73,93.22-4,101-0.33-2.333-.67-4.667-1-7,0.24,38.868-.32,84.049-9,119-5.83,23.476.94,44.093-5,64-8.45,28.346-.35,60.144-7,85q-0.495,21-1,42c-10.41,26.186-1.96,73.709-11,104q-7.5,100.995-15,202c-5.18,15.07.46,46.29-5,60-6.82,17.12-6.9,52.15-7,77h-1c-0.33-1-.67-2-1-3,1.35,69.94-21.15,118.26-70,139h-49l-53-3h4q-68.493-3.495-137-7h4q-74.493-4.005-149-8c4.443-13.24,24.991-24.08,33-36,14.506-21.59,25.386-49.17,33-77,12.47-45.58,15-98.39,15-155v-48l-4-86q20.5-215.979,41-432l92-22c74.561-22.141,145.57-39.415,212-67C1120.13,496.226,1177.45,477,1187,460ZM584,654c82.168-1.206,70.1,114.559,56,182-16.929,80.994-25.535,161.961-50,234-16.587,48.84-55.709,133.37-45,203a551.354,551.354,0,0,0,26,103q7,16.5,14,33c-43.159.29-80.777-1.83-108-22-26.989-20-28.653-47.66-45-79q-2.5-17.505-5-35c-7.118-17.86-4.042-41.93-10-65q-8.5-54.99-17-110c-1.54-6.63-6-37-6-37-1.058-3.9-1.18-43.8-5-38q-4-36.5-8-73L358,803c-2.351-6.862-6.062-47.77-4-52,16.088,9.3,56.07-4.912,71-10,31.661-10.79,58.413-21.569,83-39l41-33C559.588,661.987,572.048,660.289,584,654Z"/>
</svg>
